<svg width="648" height="675" viewBox="0 0 648 675" fill="none" xmlns="http://www.w3.org/2000/svg">
<g id="Group 1">
<path id="Vector" d="M647 675H52V674H647V675Z" fill="#3F3D56"/>
<path id="Vector_2" d="M491.924 152.995H489.654V39.0346C489.654 28.6938 485.546 18.7766 478.234 11.4646C470.922 4.15266 461.005 0.0448303 450.664 0.0448303H196.874C186.533 0.0448303 176.616 4.15266 169.304 11.4646C161.992 18.7766 157.884 28.6938 157.884 39.0346V88.9648H157.024C156.417 88.9648 155.834 89.206 155.405 89.6355C154.975 90.065 154.734 90.6474 154.734 91.2547V113.585C154.734 114.192 154.975 114.775 155.405 115.204C155.834 115.634 156.417 115.875 157.024 115.875H157.884V138.225H156.824C156.523 138.225 156.225 138.284 155.948 138.399C155.67 138.514 155.417 138.683 155.205 138.896C154.992 139.108 154.823 139.361 154.708 139.639C154.593 139.916 154.534 140.214 154.534 140.515V182.775C154.534 183.382 154.775 183.964 155.205 184.394C155.634 184.823 156.217 185.065 156.824 185.065H157.884V201.455H156.924C156.623 201.455 156.325 201.514 156.048 201.629C155.77 201.744 155.517 201.913 155.305 202.125C155.092 202.338 154.923 202.59 154.808 202.868C154.693 203.146 154.634 203.444 154.634 203.744V246.405C154.634 247.012 154.875 247.595 155.305 248.024C155.734 248.453 156.317 248.695 156.924 248.695H157.884V635.325C157.884 645.665 161.992 655.583 169.304 662.895C176.616 670.207 186.533 674.315 196.874 674.315H450.664C461.005 674.315 470.922 670.207 478.234 662.895C485.546 655.583 489.654 645.665 489.654 635.325V234.725H491.924C492.531 234.725 493.114 234.484 493.543 234.054C493.973 233.625 494.214 233.042 494.214 232.435V155.285C494.214 154.677 493.973 154.095 493.543 153.665C493.114 153.236 492.531 152.995 491.924 152.995Z" fill="#3F3D56"/>
<path id="Vector_3" d="M334.224 30.0844H295.634C294.475 30.0832 293.365 29.6226 292.545 28.8035C291.726 27.9844 291.265 26.8738 291.264 25.7153V24.0444C291.265 22.8859 291.726 21.7753 292.545 20.9562C293.365 20.1371 294.475 19.6764 295.634 19.6752H334.224C335.382 19.6764 336.493 20.1371 337.312 20.9562C338.131 21.7753 338.592 22.8859 338.594 24.0444V25.7153C338.592 26.8738 338.132 27.9844 337.312 28.8035C336.493 29.6226 335.382 30.0832 334.224 30.0844V30.0844Z" fill="white"/>
<path id="Vector_4" d="M350.434 30.2249C353.383 30.2249 355.774 27.834 355.774 24.8848C355.774 21.9356 353.383 19.5448 350.434 19.5448C347.485 19.5448 345.094 21.9356 345.094 24.8848C345.094 27.834 347.485 30.2249 350.434 30.2249Z" fill="white"/>
<path id="Vector_5" d="M442.814 17.6049H404.814V22.1749C404.814 27.93 402.528 33.4495 398.458 37.5191C394.389 41.5886 388.869 43.8748 383.114 43.8748H262.054C259.206 43.8762 256.385 43.3164 253.753 42.2276C251.121 41.1388 248.729 39.5422 246.714 37.5291C244.699 35.5159 243.1 33.1255 242.009 30.4945C240.918 27.8634 240.355 25.0432 240.354 22.1949V17.6049H204.724C197.735 17.6049 191.033 20.381 186.092 25.3226C181.15 30.2642 178.374 36.9664 178.374 43.9548V43.9548V630.395C178.374 637.383 181.15 644.086 186.092 649.027C191.033 653.969 197.735 656.745 204.724 656.745H442.814C449.8 656.745 456.499 653.97 461.439 649.03C466.379 644.09 469.154 637.391 469.154 630.405V43.9548C469.155 40.4958 468.475 37.0704 467.153 33.8742C465.83 30.678 463.891 27.7736 461.446 25.3267C459.001 22.8799 456.098 20.9386 452.903 19.6137C449.708 18.2888 446.283 17.6062 442.824 17.6049H442.814Z" fill="white"/>
<path id="Vector_6" d="M374.764 585.583H272.764C265.47 585.583 258.476 582.686 253.318 577.529C248.161 572.372 245.264 565.377 245.264 558.083C245.264 550.79 248.161 543.795 253.318 538.638C258.476 533.481 265.47 530.583 272.764 530.583H374.764C382.058 530.583 389.053 533.481 394.21 538.638C399.367 543.795 402.264 550.79 402.264 558.083C402.264 565.377 399.367 572.372 394.21 577.529C389.053 582.686 382.058 585.583 374.764 585.583V585.583Z" fill="#6C63FF"/>
<path id="Vector_7" d="M414.764 359.695H232.764C230.244 359.695 227.828 358.694 226.046 356.912C224.265 355.131 223.264 352.714 223.264 350.195C223.264 347.675 224.265 345.259 226.046 343.477C227.828 341.696 230.244 340.695 232.764 340.695H414.764C417.284 340.695 419.7 341.696 421.482 343.477C423.264 345.259 424.264 347.675 424.264 350.195C424.264 352.714 423.264 355.131 421.482 356.912C419.7 358.694 417.284 359.695 414.764 359.695V359.695Z" fill="#E6E6E6"/>
<path id="Vector_8" d="M414.764 387.695H232.764C230.244 387.695 227.828 386.694 226.046 384.912C224.265 383.131 223.264 380.714 223.264 378.195C223.264 375.675 224.265 373.259 226.046 371.477C227.828 369.696 230.244 368.695 232.764 368.695H414.764C417.284 368.695 419.7 369.696 421.482 371.477C423.264 373.259 424.264 375.675 424.264 378.195C424.264 380.714 423.264 383.131 421.482 384.912C419.7 386.694 417.284 387.695 414.764 387.695V387.695Z" fill="#E6E6E6"/>
<path id="Vector_9" d="M414.764 415.695H232.764C230.244 415.695 227.828 414.694 226.046 412.912C224.265 411.131 223.264 408.714 223.264 406.195C223.264 403.675 224.265 401.259 226.046 399.477C227.828 397.696 230.244 396.695 232.764 396.695H414.764C417.284 396.695 419.7 397.696 421.482 399.477C423.264 401.259 424.264 403.675 424.264 406.195C424.264 408.714 423.264 411.131 421.482 412.912C419.7 414.694 417.284 415.695 414.764 415.695V415.695Z" fill="#E6E6E6"/>
<path id="Vector_10" d="M414.764 443.695H232.764C230.244 443.695 227.828 442.694 226.046 440.912C224.265 439.131 223.264 436.714 223.264 434.195C223.264 431.675 224.265 429.259 226.046 427.477C227.828 425.696 230.244 424.695 232.764 424.695H414.764C417.284 424.695 419.7 425.696 421.482 427.477C423.264 429.259 424.264 431.675 424.264 434.195C424.264 436.714 423.264 439.131 421.482 440.912C419.7 442.694 417.284 443.695 414.764 443.695V443.695Z" fill="#E6E6E6"/>
<path id="Vector_11" d="M290.764 471.695H232.764C230.244 471.695 227.828 470.694 226.046 468.912C224.265 467.131 223.264 464.714 223.264 462.195C223.264 459.675 224.265 457.259 226.046 455.477C227.828 453.696 230.244 452.695 232.764 452.695H290.764C293.284 452.695 295.7 453.696 297.482 455.477C299.263 457.259 300.264 459.675 300.264 462.195C300.264 464.714 299.263 467.131 297.482 468.912C295.7 470.694 293.284 471.695 290.764 471.695H290.764Z" fill="#E6E6E6"/>
<path id="Vector_12" d="M443.25 281.844H204.278C202.166 281.841 200.14 281.001 198.646 279.507C197.153 278.014 196.312 275.988 196.31 273.876V96.5139C196.312 94.4014 197.153 92.3761 198.646 90.8824C200.14 89.3887 202.166 88.5485 204.278 88.5461H443.25C445.362 88.5485 447.388 89.3887 448.881 90.8824C450.375 92.3762 451.215 94.4015 451.218 96.5139V273.876C451.215 275.988 450.375 278.013 448.881 279.507C447.388 281.001 445.362 281.841 443.25 281.844V281.844Z" fill="#E6E6E6"/>
<g id="Group" opacity="0.1">
<path id="Vector_13" opacity="0.1" d="M485.578 231.215C485.578 229.842 485.578 228.461 485.578 227.075C485.523 228.144 485.523 229.216 485.578 230.285C485.568 230.595 485.578 230.905 485.578 231.215Z" fill="black"/>
</g>
<path id="Vector_14" d="M525.442 309.849C539.933 309.849 551.681 298.102 551.681 283.61C551.681 269.119 539.933 257.372 525.442 257.372C510.95 257.372 499.203 269.119 499.203 283.61C499.203 298.102 510.95 309.849 525.442 309.849Z" fill="#FFB8B8"/>
<path id="Vector_15" d="M593.685 496.376C594.709 495.439 595.515 494.288 596.046 493.005C596.577 491.722 596.82 490.338 596.759 488.951C596.697 487.564 596.332 486.208 595.69 484.977C595.047 483.746 594.143 482.671 593.04 481.827L589.462 450.047L569.537 455.486L579.238 484.09C577.944 486.036 577.409 488.39 577.735 490.705C578.06 493.02 579.223 495.135 581.004 496.65C582.785 498.164 585.059 498.973 587.396 498.922C589.733 498.872 591.971 497.966 593.685 496.376V496.376Z" fill="#FFB8B8"/>
<path id="Vector_16" d="M608.242 657.281L619.24 650.168L597.036 604.365L580.805 614.864L608.242 657.281Z" fill="#FFB8B8"/>
<path id="Vector_17" d="M647.054 646.661L612.491 669.017L603.854 655.664L625.562 641.622C627.25 640.53 629.136 639.782 631.114 639.419C633.091 639.056 635.121 639.086 637.087 639.508C639.052 639.929 640.916 640.734 642.57 641.876C644.225 643.017 645.639 644.474 646.731 646.162L647.054 646.661V646.661Z" fill="#2F2E41"/>
<path id="Vector_18" d="M510.851 661.936H523.948L530.181 611.418H510.851V661.936Z" fill="#FFB8B8"/>
<path id="Vector_19" d="M549.207 674.097H508.044V658.194H533.898C537.958 658.194 541.852 659.807 544.723 662.678C547.594 665.549 549.207 669.442 549.207 673.503V674.097V674.097Z" fill="#2F2E41"/>
<path id="Vector_20" d="M563.416 335.71C561.674 341.381 567.848 347.555 569.841 353.129C571.834 358.703 574.516 364.067 575.593 369.9C576.33 373.911 593.038 462.5 592.235 467.894C587.092 466.353 581.553 466.861 576.776 469.312C573.439 463.45 571.433 456.924 570.902 450.199C570.701 446.212 570.739 442.216 571.015 438.233C571.534 426.963 566.648 415.677 566.486 404.399C566.537 400.49 566.228 396.584 565.563 392.732C565.028 390.083 565.077 385.124 564.501 382.483C563.586 378.286 567.523 376.35 567.305 372.047L566.106 348.552C565.855 344.436 561.723 339.388 563.416 335.71Z" fill="#2F2E41"/>
<path id="Vector_21" d="M504.177 434.29C499.966 440.859 491.102 442.28 484.901 446.986C475.426 454.219 499.598 616.716 507.578 645.583C528.634 642.425 529.371 642.436 531.792 641.372C534.213 640.309 536.403 557.772 541.52 540.758C551.095 549.782 581.231 627.338 587.59 644.531C612.857 638.214 587.59 644.531 620.227 636.108C619.953 630.15 571.998 435.985 570.25 420.688C548.31 425.057 526.054 429.931 504.177 434.29Z" fill="#2F2E41"/>
<path id="Vector_22" d="M501.338 312.271C498.737 319.976 502.278 349.953 502.537 356.694C502.91 362.813 502.91 368.95 502.537 375.069C501.638 385.667 498.486 396.337 500.601 406.756C501.986 413.651 504.449 420.06 505.025 427.076C505.413 431.937 505.292 436.88 506.831 441.49C512.503 439.059 562.784 430.704 566.478 425.845C563.951 413.635 566.397 401.028 564.72 388.673C563.748 381.551 561.342 374.697 560.207 367.607C558.806 358.857 559.397 349.783 556.845 341.284C555.43 336.981 553.633 332.813 551.473 328.831C549.276 324.302 546.521 320.582 545.578 320.583C543.188 320.713 501.491 311.584 501.338 312.271Z" fill="#6C63FF"/>
<path id="Vector_23" d="M491.713 495.717C491.713 495.717 500.431 478.322 500.868 468.372C501.022 464.799 510.809 450.58 515.217 447.356C525.669 439.699 533.374 388.381 529.841 375.928C523.732 354.401 513.443 334.333 502.999 314.547C502.688 313.81 502.184 313.169 501.541 312.692C499.418 311.371 497.117 313.972 495.667 316.006C490.749 322.901 482.647 326.587 475.225 330.662C467.804 334.738 460.212 340.166 457.968 348.325C456.461 353.802 457.636 359.611 458.778 365.161C459.921 370.711 463.915 375.118 466.937 379.793C470.44 384.952 479.54 407.833 479.471 410.548C479.649 427.336 479.819 444.18 477.786 460.854C476.643 470.276 475.639 489.211 475.639 489.211L491.713 495.717Z" fill="#2F2E41"/>
<path id="Vector_24" d="M570.886 477.73C554.836 441.198 555.735 399.627 545.535 361.061C542.505 349.613 538.454 338.108 539.183 326.287C539.312 324.173 539.758 321.799 541.524 320.616C543.096 319.563 545.235 319.846 546.961 320.616C548.686 321.385 550.161 322.641 551.822 323.5C554.504 324.869 557.623 325.258 560.199 326.806C564.024 329.107 565.976 333.482 567.686 337.598C571.34 346.388 574.978 355.422 575.269 364.95C575.885 383.455 567.678 401.239 571.955 419.234C572.878 422.782 573.982 426.281 575.261 429.718C579.55 442.13 583.067 454.796 585.794 467.643C586.272 469.839 571.558 479.27 570.886 477.73Z" fill="#2F2E41"/>
<path id="Vector_25" d="M519.933 469.086C520.148 467.714 520.059 466.312 519.673 464.979C519.287 463.645 518.614 462.412 517.7 461.367C516.786 460.321 515.654 459.489 514.383 458.929C513.113 458.368 511.735 458.093 510.347 458.123L487.713 435.529L475.543 452.216L500.977 468.506C501.182 470.835 502.233 473.008 503.932 474.613C505.632 476.218 507.861 477.144 510.198 477.216C512.534 477.287 514.816 476.499 516.61 475.001C518.404 473.502 519.587 471.398 519.933 469.086V469.086Z" fill="#FFB8B8"/>
<path id="Vector_26" d="M447.816 417.775C448.189 421.17 476.704 456.972 492.199 468.656C491.3 464.046 503.445 449.009 507.374 446.659C497.555 437.396 477.038 415.911 476.36 414.737C474.14 410.451 476.36 405.33 478.296 400.899C484.397 386.809 487.273 370.824 483.36 355.973C481.885 350.399 479.309 344.816 474.618 341.389C472.568 339.899 469.797 338.878 467.52 340.012C466.567 340.561 465.739 341.303 465.09 342.191C457.822 351.031 447.541 415.255 447.816 417.775Z" fill="#2F2E41"/>
<path id="Vector_27" d="M514.258 306.57C515.79 300.07 508.046 286.084 509.578 279.583C510.615 275.181 520.966 278.174 523.382 274.35C525.798 270.527 529.844 267.43 534.366 267.379C539.564 267.32 544.679 271.176 549.603 269.51C554.582 267.825 556.173 261.007 553.972 256.234C551.771 251.461 547.029 248.419 542.344 246.036C534.367 241.978 525.078 239.014 516.54 241.699C511.378 243.322 507.063 246.839 502.886 250.279C499.08 253.415 495.209 256.622 492.547 260.774C487.334 268.909 487.648 279.87 492.104 288.443C496.559 297.017 504.677 303.309 513.622 306.961" fill="#2F2E41"/>
<path id="Vector_28" d="M146.905 154.623L7.87219 124.631L6.06533 124.242C5.1452 124.042 4.18736 124.106 3.30194 124.427C2.41651 124.747 1.63947 125.311 1.06018 126.053C0.480881 126.795 0.122838 127.686 0.0272486 128.623C-0.0683407 129.559 0.102413 130.504 0.519833 131.348L55.7215 243.45C56.0787 244.17 56.6038 244.794 57.2525 245.269C57.9012 245.744 58.6545 246.056 59.449 246.179C60.246 246.303 61.0611 246.231 61.8241 245.969C62.5871 245.708 63.2749 245.264 63.8281 244.677L102.17 204.249C102.443 203.954 102.773 203.719 103.142 203.558C103.51 203.398 103.907 203.315 104.309 203.315C104.855 203.307 105.392 203.448 105.864 203.723C106.336 203.997 106.725 204.395 106.988 204.873L114.842 219.399C115.343 220.368 116.154 221.141 117.146 221.595C118.137 222.05 119.252 222.159 120.313 221.907L120.352 221.898C121.426 221.67 122.392 221.088 123.095 220.246C123.798 219.403 124.198 218.348 124.229 217.251L125.802 183.719C125.821 183.3 125.926 182.89 126.109 182.514C126.307 182.142 126.574 181.811 126.898 181.541L149.017 163.383C149.744 162.786 150.289 161.997 150.588 161.105C150.887 160.213 150.928 159.255 150.708 158.341C150.487 157.426 150.013 156.592 149.341 155.935C148.668 155.277 147.824 154.822 146.905 154.623H146.905ZM147.754 161.84L125.635 179.997C125.346 180.229 125.085 180.493 124.856 180.784L7.62091 127.616C7.51751 127.568 7.40964 127.53 7.29885 127.503C6.84666 127.386 6.36795 127.431 5.94552 127.63C5.52309 127.829 5.18349 128.17 4.98547 128.593C4.78745 129.016 4.74345 129.494 4.86108 129.946C4.97871 130.398 5.25058 130.795 5.62967 131.067L102.023 201.875C101.534 202.129 101.092 202.466 100.718 202.87L62.3762 243.298C62.0435 243.648 61.6312 243.913 61.1744 244.07C60.7175 244.226 60.2296 244.27 59.7521 244.198C59.2746 244.126 58.8216 243.939 58.4315 243.654C58.0415 243.369 57.7261 242.995 57.5119 242.562L2.31027 130.46C2.06349 129.954 1.96393 129.388 2.02295 128.828C2.08196 128.268 2.29718 127.735 2.64407 127.291C2.99096 126.847 3.45559 126.509 3.98501 126.317C4.51443 126.124 5.08736 126.084 5.63852 126.201L7.48828 126.6L146.478 156.581C147.029 156.701 147.537 156.973 147.941 157.367C148.345 157.762 148.63 158.262 148.763 158.811C148.896 159.359 148.872 159.934 148.694 160.47C148.516 161.006 148.19 161.48 147.754 161.84V161.84Z" fill="#6C63FF"/>
<path id="Vector_29" d="M146.904 154.494L7.87078 124.503L6.06393 124.114C5.1438 123.914 4.18596 123.978 3.30053 124.298C2.41511 124.619 1.63807 125.182 1.05877 125.925C0.479477 126.667 0.121434 127.558 0.0258448 128.494C-0.0697445 129.431 0.101009 130.376 0.518429 131.22L55.7201 243.321C56.0773 244.042 56.6024 244.665 57.2511 245.14C57.8998 245.615 58.6531 245.927 59.4476 246.051C60.2446 246.175 61.0597 246.103 61.8227 245.841C62.5857 245.579 63.2735 245.136 63.8267 244.549L102.168 204.121C102.441 203.826 102.772 203.591 103.14 203.43C103.508 203.269 103.906 203.186 104.307 203.187C104.853 203.179 105.391 203.32 105.863 203.594C106.335 203.869 106.723 204.267 106.987 204.745L114.84 219.271C115.342 220.24 116.153 221.013 117.144 221.467C118.136 221.921 119.251 222.031 120.312 221.778L120.351 221.77C121.424 221.542 122.391 220.96 123.094 220.117C123.797 219.274 124.196 218.22 124.228 217.122L125.801 183.591C125.82 183.172 125.924 182.762 126.108 182.386C126.305 182.013 126.573 181.683 126.896 181.412L149.016 163.255C149.743 162.658 150.287 161.869 150.586 160.977C150.885 160.085 150.927 159.127 150.706 158.212C150.486 157.298 150.012 156.464 149.34 155.807C148.667 155.149 147.823 154.694 146.904 154.494H146.904ZM147.753 161.711L125.633 179.869C125.345 180.101 125.084 180.365 124.854 180.656C124.648 180.914 124.469 181.194 124.322 181.49C124.168 181.794 124.046 182.112 123.959 182.441L123.962 182.451C123.87 182.794 123.817 183.145 123.804 183.5L122.231 217.031C122.218 217.691 121.981 218.326 121.559 218.833C121.137 219.339 120.555 219.687 119.909 219.819L119.889 219.823C119.252 219.982 118.581 219.92 117.984 219.649C117.386 219.377 116.898 218.912 116.598 218.329L108.743 203.793C108.338 203.045 107.749 202.413 107.031 201.957C106.314 201.501 105.492 201.236 104.643 201.187L104.633 201.189C104.519 201.184 104.405 201.178 104.294 201.182C103.502 201.183 102.722 201.376 102.022 201.747C101.533 202.001 101.091 202.338 100.716 202.742L62.3748 243.17C62.0421 243.52 61.6299 243.785 61.173 243.941C60.7161 244.098 60.2282 244.142 59.7507 244.07C59.2732 243.997 58.8202 243.811 58.4302 243.526C58.0402 243.241 57.7247 242.866 57.5105 242.434L2.30886 130.332C2.06208 129.826 1.96252 129.26 2.02154 128.7C2.08056 128.139 2.29577 127.607 2.64267 127.163C2.98956 126.719 3.45419 126.381 3.98361 126.188C4.51303 125.996 5.08596 125.955 5.63711 126.072L7.48687 126.472L146.476 156.453C147.028 156.572 147.535 156.845 147.939 157.239C148.344 157.633 148.629 158.134 148.762 158.682C148.895 159.231 148.871 159.806 148.693 160.342C148.514 160.878 148.188 161.352 147.753 161.711V161.711Z" fill="#3F3D56"/>
<path id="Vector_30" d="M125.299 180.983L124.473 182.804L123.963 182.579L123.961 182.569L6.81864 129.452L104.635 201.317L104.644 201.315L104.903 201.514L103.724 203.127L102.023 201.875L5.62967 131.067C5.25059 130.795 4.97872 130.398 4.86109 129.946C4.74346 129.494 4.78746 129.015 4.98548 128.593C5.1835 128.17 5.5231 127.829 5.94553 127.63C6.36796 127.431 6.84667 127.386 7.29886 127.503C7.40965 127.53 7.51751 127.567 7.62091 127.616L124.856 180.784L125.299 180.983Z" fill="#3F3D56"/>
<path id="Vector 1" d="M90.5 431.5C227.247 415.559 287.356 327.49 198.5 311C224.859 426.766 333.037 242.043 135 234.5" stroke="black" stroke-dasharray="10 10"/>
</g>
</svg>
