<svg width="349" height="580" viewBox="0 0 349 580" fill="none" xmlns="http://www.w3.org/2000/svg">
<rect width="349" height="580" fill="#E5E5E5"/>
<g id="meditate">
<path id="Path 164" d="M136.362 495.264C136.362 495.264 150.292 474.089 168.176 486.609C186.06 499.129 219.18 520.254 219.18 520.254C219.18 520.254 225.964 533.765 208.406 528.69C190.849 523.615 133.533 515.448 133.533 515.448L136.362 495.264Z" fill="#FEB8B8"/>
<path id="Vector" d="M271.509 576.991C271.867 577.626 272.388 578.168 273.028 578.569C273.667 578.97 274.404 579.218 275.172 579.29C275.566 579.326 275.454 579.886 275.062 579.85C274.214 579.767 273.401 579.492 272.693 579.05C271.986 578.609 271.406 578.013 271.004 577.316C270.961 577.253 270.944 577.177 270.959 577.103C270.973 577.03 271.017 576.964 271.082 576.919C271.149 576.877 271.232 576.861 271.312 576.874C271.392 576.887 271.463 576.93 271.509 576.991V576.991Z" fill="white"/>
<path id="Path 161" d="M67.9302 521.582C52.9422 521.582 39.2208 520.251 28.3187 517.106C15.3602 513.368 7.22376 507.322 4.13248 499.123C2.67988 495.642 2.24613 491.868 2.87518 488.181C3.50423 484.495 5.17374 481.028 7.71453 478.132C26.8846 454.988 93.408 448.461 102.334 447.689L120.442 415.919C121.601 408.339 116.119 402.6 125.59 402.457L237.626 401.047C246.928 400.866 244.288 406.203 245.881 413.594L262.95 441.827L189.486 470.554L200.593 495.631L199.868 496.021C178.367 507.577 116.535 521.58 67.9302 521.582Z" fill="#2F2E41"/>
<path id="Path 162" d="M252.78 443.031C252.78 443.031 355.378 432.153 348.686 475.667C341.995 519.181 263.932 550.004 145.722 475.667L159.104 453.91C159.104 453.91 203.154 451.88 229.919 441.001L252.78 443.031Z" fill="#2F2E41"/>
<path id="Path 166" d="M107.529 245.895C107.529 245.895 88.0287 242.61 82.7104 270.533C77.3922 298.455 68.8733 364.596 68.8733 364.596L42.4225 449.557C39.3027 451.091 36.7186 453.417 34.9718 456.261C33.2251 459.105 32.3879 462.352 32.558 465.62C32.7281 468.889 33.8984 472.046 35.9324 474.721C37.9663 477.397 40.7799 479.481 44.0445 480.73C47.3091 481.979 50.8899 482.342 54.3688 481.776C57.8476 481.21 61.0809 479.739 63.6909 477.534C66.301 475.329 68.18 472.482 69.1086 469.324C70.0373 466.167 69.9771 462.83 68.9353 459.703L104.328 369.53L111.074 291.892V251.211C111.074 250.107 110.742 249.025 110.116 248.086C109.49 247.148 108.594 246.389 107.529 245.895V245.895Z" fill="#FEB8B8"/>
<path id="Path 166_2" d="M244.785 245.895C244.785 245.895 264.285 242.61 269.603 270.533C274.922 298.455 283.44 364.596 283.44 364.596L309.891 449.557C313.011 451.091 315.595 453.417 317.342 456.261C319.089 459.105 319.926 462.352 319.756 465.62C319.586 468.889 318.415 472.046 316.381 474.721C314.347 477.397 311.534 479.481 308.269 480.73C305.005 481.979 301.424 482.342 297.945 481.776C294.466 481.21 291.233 479.739 288.623 477.534C286.013 475.329 284.134 472.482 283.205 469.324C282.276 466.167 282.337 462.83 283.379 459.703L247.986 369.53L241.24 291.892V251.211C241.24 250.107 241.572 249.025 242.198 248.086C242.824 247.148 243.72 246.389 244.785 245.895V245.895Z" fill="#FEB8B8"/>
<path id="Vector_2" d="M243.299 222.815L206.414 210.033L134.921 209.179L104.148 222.815L112.791 268.84C112.791 268.84 95.3399 296.219 114.554 323.6L118.865 421.166C118.865 421.166 187.794 458.2 245.975 413.728L232.825 323.015C232.825 323.015 254.82 280.927 237.771 265.291L243.299 222.815Z" fill="#2A22BA"/>
<path id="Vector_3" d="M228.276 237.118L243.299 222.815C243.299 222.815 276.086 238.794 275.41 292.238L234.051 280.428L228.276 237.118Z" fill="#2A22BA"/>
<path id="Vector_4" d="M120.837 237.118L104.876 222.329C104.876 222.329 76.7123 242.514 77.3878 295.957L115.062 280.428L120.837 237.118Z" fill="#2A22BA"/>
<path id="Path 163" d="M224.884 484.692C224.884 484.692 213.395 462.294 194.208 473.031C175.021 483.768 139.718 501.601 139.718 501.601C139.718 501.601 131.461 514.389 149.491 511.026C167.522 507.662 225.442 505.038 225.442 505.038L224.884 484.692Z" fill="#FEB8B8"/>
<path id="Vector_5" d="M192.965 84.3208C193.128 84.1763 193.297 84.0467 193.458 83.8985C203.724 74.3859 205.805 60.8908 198.105 53.7564C190.828 47.0141 177.425 48.3748 167.308 56.5723C158.634 48.9205 147.002 46.7874 139.474 52.0696C130.792 58.1606 130.86 71.7925 139.625 82.5174C140.226 83.2518 140.856 83.9461 141.502 84.6142C129.838 88.5703 119.766 95.751 112.651 105.185C105.535 114.618 101.719 125.85 101.719 137.359V190.815C101.719 192.382 102.053 193.934 102.7 195.383C103.347 196.831 104.296 198.147 105.493 199.255C106.689 200.363 108.109 201.243 109.672 201.842C111.235 202.442 112.911 202.751 114.602 202.751H221.234C224.536 202.751 227.703 201.536 230.038 199.372C232.373 197.209 233.685 194.275 233.685 191.215V137.359C233.683 125.695 229.761 114.321 222.464 104.816C215.167 95.3119 204.857 88.1485 192.965 84.3208Z" fill="#2F2E41"/>
<path id="Vector_6" d="M205.166 183.686C224.926 165.377 224.926 135.693 205.166 117.384C185.405 99.0753 153.367 99.0753 133.607 117.384C113.846 135.693 113.846 165.377 133.607 183.686C153.367 201.995 185.405 201.995 205.166 183.686Z" fill="#FFB6B6"/>
<path id="Vector_7" d="M116.218 121.046C127.78 128.43 141.504 132.36 155.548 132.308C150.538 135.526 144.835 137.7 138.832 138.679C157.503 142.39 176.8 142.491 195.516 138.975C199.676 138.356 203.69 137.079 207.382 135.198C209.222 134.246 210.824 132.946 212.086 131.383C213.348 129.819 214.241 128.027 214.706 126.123C215.95 119.54 210.414 113.559 204.661 109.529C195.852 103.452 185.696 99.2654 174.927 97.2715C164.158 95.2777 153.046 95.5266 142.393 98.0003C135.437 99.6662 128.469 102.481 123.952 107.656C119.434 112.832 118.095 120.811 122.4 126.14L116.218 121.046Z" fill="#2F2E41"/>
<rect id="Rectangle 1" width="349" height="49.1554" fill="#E6E6E6"/>
</g>
</svg>
